<?xml version="1.0" encoding="UTF-8" standalone="no"?>
<svg
   xmlns:dc="http://purl.org/dc/elements/1.1/"
   xmlns:cc="http://creativecommons.org/ns#"
   xmlns:rdf="http://www.w3.org/1999/02/22-rdf-syntax-ns#"
   xmlns:svg="http://www.w3.org/2000/svg"
   xmlns="http://www.w3.org/2000/svg"
   xmlns:sodipodi="http://sodipodi.sourceforge.net/DTD/sodipodi-0.dtd"
   xmlns:inkscape="http://www.inkscape.org/namespaces/inkscape"
   version="1.1"
   id="svg904"
   xml:space="preserve"
   width="211.08"
   height="210.90668"
   viewBox="0 0 211.08 210.90668"
   sodipodi:docname="Logo_Guanaja-nofackel.svg"
   inkscape:export-filename="/home/zen/logo1.png"
   inkscape:export-xdpi="600"
   inkscape:export-ydpi="600"
   inkscape:version="1.0.2 (e86c870879, 2021-01-15)"><metadata
     id="metadata910"><rdf:RDF><cc:Work
         rdf:about=""><dc:format>image/svg+xml</dc:format><dc:type
           rdf:resource="http://purl.org/dc/dcmitype/StillImage" /><dc:title></dc:title></cc:Work></rdf:RDF></metadata><defs
     id="defs908" /><sodipodi:namedview
     pagecolor="#ffffff"
     bordercolor="#666666"
     borderopacity="1"
     objecttolerance="10"
     gridtolerance="10"
     guidetolerance="10"
     inkscape:pageopacity="0"
     inkscape:pageshadow="2"
     inkscape:window-width="1874"
     inkscape:window-height="1051"
     id="namedview906"
     showgrid="false"
     inkscape:zoom="3.390125"
     inkscape:cx="105.54"
     inkscape:cy="105.45334"
     inkscape:window-x="46"
     inkscape:window-y="0"
     inkscape:window-maximized="1"
     inkscape:current-layer="g912" /><g
     id="g912"
     inkscape:groupmode="layer"
     inkscape:label="ink_ext_XXXXXX"
     transform="matrix(1.3333333,0,0,-1.3333333,0,210.90667)"><path
       d="m 109.089,93.6875 c -4.213,3.5438 -10.3402,3.5438 -14.5531,0 L 69.9016,72.9648 c -2.1067,-1.7714 -5.17,-1.7714 -7.2766,8e-4 l -11.3652,9.5598 c -4.2012,3.5344 -10.3059,3.5457 -14.5196,0.0293 L 3.98711,54.2195 C 1.41211,62.0242 0,70.3574 0,79.0242 c 0,43.7148 35.4375,79.1528 79.1523,79.1528 43.7157,0 79.1537,-35.438 79.1537,-79.1528 0,-8.3191 -1.291,-16.3355 -3.671,-23.8687 l -45.546,38.532"
       style="fill:#ed1c24;fill-opacity:1;fill-rule:nonzero;stroke:none;stroke-width:0.1"
       id="path916"
       inkscape:export-filename="/home/zen/path954b.png"
       inkscape:export-xdpi="600"
       inkscape:export-ydpi="600" /><path
       d="m 16.2988,28.0457 c 0.8465,-0.9629 1.709,-1.9121 2.5996,-2.834 H 137.538 c 0.891,0.9219 1.753,1.8711 2.6,2.834 H 16.2988"
       style="fill:#ed1c24;fill-opacity:1;fill-rule:nonzero;stroke:none;stroke-width:0.1"
       id="path918"
       inkscape:export-filename="/home/zen/path954b.png"
       inkscape:export-xdpi="600"
       inkscape:export-ydpi="600" /><path
       d="m 21.7793,22.377 c 1.032,-0.9707 2.0852,-1.918 3.166,-2.8352 H 131.492 c 1.08,0.9172 2.133,1.8645 3.165,2.8352 H 21.7793"
       style="fill:#ed1c24;fill-opacity:1;fill-rule:nonzero;stroke:none;stroke-width:0.1"
       id="path920"
       inkscape:export-filename="/home/zen/path954b.png"
       inkscape:export-xdpi="600"
       inkscape:export-ydpi="600" /><path
       d="m 114.09,8.20391 c 1.818,0.88125 3.6,1.82659 5.342,2.83439 H 37.0051 c 1.741,-1.0078 3.523,-1.95314 5.3418,-2.83439 H 114.09"
       style="fill:#ed1c24;fill-opacity:1;fill-rule:nonzero;stroke:none;stroke-width:0.1"
       id="path922"
       inkscape:export-filename="/home/zen/path954b.png"
       inkscape:export-xdpi="600"
       inkscape:export-ydpi="600" /><path
       d="m 28.4758,16.7078 c 1.2976,-0.9844 2.6265,-1.9273 3.982,-2.8348 h 91.5212 c 1.355,0.9075 2.684,1.8504 3.982,2.8348 H 28.4758"
       style="fill:#ed1c24;fill-opacity:1;fill-rule:nonzero;stroke:none;stroke-width:0.1"
       id="path924"
       inkscape:export-filename="/home/zen/path954b.png"
       inkscape:export-xdpi="600"
       inkscape:export-ydpi="600" /><path
       d="M 48.9102,5.36914 C 58.0164,1.90234 67.8945,0 78.2188,0 88.5422,0 98.4199,1.90234 107.527,5.36914 H 48.9102"
       style="fill:#ed1c24;fill-opacity:1;fill-rule:nonzero;stroke:none;stroke-width:0.1"
       id="path926"
       inkscape:export-filename="/home/zen/path954b.png"
       inkscape:export-xdpi="600"
       inkscape:export-ydpi="600" /><path
       d="m 146.686,36.5496 c 0.627,0.9336 1.242,1.875 1.83,2.8352 H 7.91992 C 8.50898,38.4246 9.12383,37.4832 9.75,36.5496 h 136.936"
       style="fill:#ed1c24;fill-opacity:1;fill-rule:nonzero;stroke:none;stroke-width:0.1"
       id="path928"
       inkscape:export-filename="/home/zen/path954b.png"
       inkscape:export-xdpi="600"
       inkscape:export-ydpi="600" /><path
       d="m 11.741,33.7156 c 0.7043,-0.959 1.4211,-1.9082 2.1653,-2.8347 H 142.53 c 0.744,0.9265 1.461,1.8757 2.165,2.8347 H 11.741"
       style="fill:#ed1c24;fill-opacity:1;fill-rule:nonzero;stroke:none;stroke-width:0.1"
       id="path930"
       inkscape:export-filename="/home/zen/path954b.png"
       inkscape:export-xdpi="600"
       inkscape:export-ydpi="600" /><path
       d="M 15.6934,50.5969 H 9.80586 V 45.468 h 5.88754 v 1.8015 h -3.0821 v 1.3797 h 4.9141 v -2.7898 c 0,-0.741 -0.1375,-1.2461 -0.4141,-1.5137 -0.2754,-0.2687 -0.8078,-0.4031 -1.5945,-0.4031 H 9.92852 c -0.78672,0 -1.31797,0.1344 -1.59454,0.4031 -0.27656,0.2676 -0.41406,0.7727 -0.41406,1.5137 v 4.2695 c 0,0.7363 0.1375,1.2395 0.41406,1.5106 0.27657,0.2707 0.80782,0.4062 1.59454,0.4062 h 5.58828 c 0.7773,0 1.3055,-0.1328 1.5867,-0.398 0.2813,-0.2668 0.4219,-0.7473 0.4219,-1.4418 v -0.1844 l -1.832,-0.3289 v 0.9043"
       style="fill:#ed1c24;fill-opacity:1;fill-rule:nonzero;stroke:none;stroke-width:0.1"
       id="path932"
       inkscape:export-filename="/home/zen/path954b.png"
       inkscape:export-xdpi="600"
       inkscape:export-ydpi="600" /><path
       d="M 23.3977,52.0457 V 45.468 h 5.3738 v 6.5777 h 1.8777 v -6.1863 c 0,-0.741 -0.1375,-1.2461 -0.4137,-1.5137 -0.2753,-0.2687 -0.8078,-0.4031 -1.5949,-0.4031 h -5.1203 c -0.782,0 -1.3125,0.1344 -1.5906,0.4031 -0.2781,0.2676 -0.418,0.7727 -0.418,1.5137 v 6.1863 h 1.886"
       style="fill:#ed1c24;fill-opacity:1;fill-rule:nonzero;stroke:none;stroke-width:0.1"
       id="path934"
       inkscape:export-filename="/home/zen/path954b.png"
       inkscape:export-xdpi="600"
       inkscape:export-ydpi="600" /><path
       d="m 32.9031,43.9426 4.584,8.1031 h 1.8176 L 43.95,43.9426 h -2.116 l -0.9735,1.7715 h -5.1359 l -0.9433,-1.7715 z m 3.6262,3.2351 h 3.5488 l -1.7468,3.2969 z"
       style="fill:#ed1c24;fill-opacity:1;fill-rule:nonzero;stroke:none;stroke-width:0.1"
       id="path936"
       inkscape:export-filename="/home/zen/path954b.png"
       inkscape:export-xdpi="600"
       inkscape:export-ydpi="600" /><path
       d="m 46.541,43.9426 v 8.1031 h 1.2879 l 5.7031,-4.7762 c 0.1946,-0.1582 0.3657,-0.3078 0.5137,-0.4484 0.1484,-0.1402 0.2844,-0.2852 0.4066,-0.4336 -0.0304,0.4555 -0.0507,0.7773 -0.0617,0.9668 -0.0097,0.1887 -0.0144,0.3344 -0.0144,0.4367 v 4.2547 h 1.6941 V 43.9426 H 54.782 l -5.9492,5.0054 c -0.1426,0.1282 -0.2683,0.2434 -0.3758,0.3458 -0.1062,0.1015 -0.207,0.2074 -0.2988,0.3136 0.0254,-0.25 0.0449,-0.4863 0.0574,-0.709 0.0129,-0.2218 0.0199,-0.4152 0.0199,-0.5781 V 43.9426 H 46.541"
       style="fill:#ed1c24;fill-opacity:1;fill-rule:nonzero;stroke:none;stroke-width:0.1"
       id="path938"
       inkscape:export-filename="/home/zen/path954b.png"
       inkscape:export-xdpi="600"
       inkscape:export-ydpi="600" /><path
       d="m 58.6531,43.9426 4.584,8.1031 h 1.8176 l 4.6457,-8.1031 H 67.584 l -0.9735,1.7715 h -5.1359 l -0.9433,-1.7715 z m 3.6262,3.2351 h 3.5488 l -1.7468,3.2969 z"
       style="fill:#ed1c24;fill-opacity:1;fill-rule:nonzero;stroke:none;stroke-width:0.1"
       id="path940"
       inkscape:export-filename="/home/zen/path954b.png"
       inkscape:export-xdpi="600"
       inkscape:export-ydpi="600" /><path
       d="m 73.4863,43.9426 c -0.7859,0 -1.3183,0.1344 -1.5937,0.4031 -0.2766,0.2676 -0.4141,0.7727 -0.4141,1.5137 v 1.6785 l 1.9016,0.3605 V 45.468 h 3.7019 v 6.5777 h 1.886 v -6.1863 c 0,-0.741 -0.1391,-1.2461 -0.4184,-1.5137 C 78.2715,44.077 77.741,43.9426 76.959,43.9426 h -3.4727"
       style="fill:#ed1c24;fill-opacity:1;fill-rule:nonzero;stroke:none;stroke-width:0.1"
       id="path942"
       inkscape:export-filename="/home/zen/path954b.png"
       inkscape:export-xdpi="600"
       inkscape:export-ydpi="600" /><path
       d="m 80.9531,43.9426 4.5852,8.1031 h 1.8164 L 92,43.9426 h -2.1152 l -0.9739,1.7715 H 83.7742 L 82.832,43.9426 Z m 3.6258,3.2351 h 3.55 l -1.748,3.2969 z"
       style="fill:#ed1c24;fill-opacity:1;fill-rule:nonzero;stroke:none;stroke-width:0.1"
       id="path944"
       inkscape:export-filename="/home/zen/path954b.png"
       inkscape:export-xdpi="600"
       inkscape:export-ydpi="600" /><path
       d="m 100.686,43.9426 v 8.1031 h 1.885 v -3.1434 h 5.888 v 3.1434 h 1.902 v -8.1031 h -1.902 v 3.4883 h -5.888 v -3.4883 h -1.885"
       style="fill:#ed1c24;fill-opacity:1;fill-rule:nonzero;stroke:none;stroke-width:0.1"
       id="path946"
       inkscape:export-filename="/home/zen/path954b.png"
       inkscape:export-xdpi="600"
       inkscape:export-ydpi="600" /><path
       d="m 114.5,43.9426 v 8.1031 h 1.886 V 43.9426 H 114.5"
       style="fill:#ed1c24;fill-opacity:1;fill-rule:nonzero;stroke:none;stroke-width:0.1"
       id="path948"
       inkscape:export-filename="/home/zen/path954b.png"
       inkscape:export-xdpi="600"
       inkscape:export-ydpi="600" /><path
       d="m 120.525,43.9426 v 8.1031 h 1.886 V 45.468 h 6.079 v -1.5254 h -7.965"
       style="fill:#ed1c24;fill-opacity:1;fill-rule:nonzero;stroke:none;stroke-width:0.1"
       id="path950"
       inkscape:export-filename="/home/zen/path954b.png"
       inkscape:export-xdpi="600"
       inkscape:export-ydpi="600" /><path
       d="m 131.25,43.9426 v 8.1031 h 1.886 V 45.468 h 6.079 v -1.5254 h -7.965"
       style="fill:#ed1c24;fill-opacity:1;fill-rule:nonzero;stroke:none;stroke-width:0.1"
       id="path952"
       inkscape:export-filename="/home/zen/path954b.png"
       inkscape:export-xdpi="600"
       inkscape:export-ydpi="600" /><path
       d="m 148.996,50.6277 h -5.305 v -1.7402 h 5.052 c 0.792,0 1.328,-0.1355 1.607,-0.4062 0.278,-0.2711 0.418,-0.7743 0.418,-1.5106 v -1.1113 c 0,-0.7364 -0.14,-1.2395 -0.418,-1.511 -0.279,-0.2703 -0.815,-0.4058 -1.607,-0.4058 h -5.006 c -0.792,0 -1.327,0.1355 -1.605,0.4058 -0.278,0.2715 -0.418,0.7746 -0.418,1.511 v 0.2226 l 1.663,0.3446 V 45.468 h 5.727 v 1.8472 h -5.052 c -0.787,0 -1.319,0.136 -1.595,0.4067 -0.275,0.2715 -0.414,0.7742 -0.414,1.5105 v 0.8965 c 0,0.7363 0.139,1.2395 0.414,1.5106 0.276,0.2707 0.808,0.4062 1.595,0.4062 h 4.6 c 0.761,0 1.286,-0.1309 1.575,-0.3914 0.289,-0.2598 0.433,-0.7227 0.433,-1.3867 v -0.1692 l -1.664,-0.3906 v 0.9199"
       style="fill:#ed1c24;fill-opacity:1;fill-rule:nonzero;stroke:none;stroke-width:0.1"
       id="path954"
       inkscape:export-filename="/home/zen/path954b.png"
       inkscape:export-xdpi="600"
       inkscape:export-ydpi="600" /></g></svg>
