<?xml version="1.0" encoding="UTF-8" standalone="no"?>
<svg
   width="158.31pt"
   height="158.18pt"
   viewBox="0 0 158.31 158.18"
   version="1.2"
   id="svg62"
   sodipodi:docname="Logo_Guanajahills-yellow-blue2.svg"
   inkscape:version="1.1 (c68e22c387, 2021-05-23)"
   xmlns:inkscape="http://www.inkscape.org/namespaces/inkscape"
   xmlns:sodipodi="http://sodipodi.sourceforge.net/DTD/sodipodi-0.dtd"
   xmlns="http://www.w3.org/2000/svg"
   xmlns:svg="http://www.w3.org/2000/svg">
  <sodipodi:namedview
     id="namedview64"
     pagecolor="#505050"
     bordercolor="#eeeeee"
     borderopacity="1"
     inkscape:pageshadow="0"
     inkscape:pageopacity="0"
     inkscape:pagecheckerboard="0"
     inkscape:document-units="pt"
     showgrid="false"
     inkscape:zoom="3.0819321"
     inkscape:cx="105.61556"
     inkscape:cy="105.45333"
     inkscape:window-width="1920"
     inkscape:window-height="1139"
     inkscape:window-x="1919"
     inkscape:window-y="0"
     inkscape:window-maximized="1"
     inkscape:current-layer="svg62" />
  <defs
     id="defs11">
    <clipPath
       id="clip1">
      <path
         d="M 3 61 L 155 61 L 155 158.179688 L 3 158.179688 Z M 3 61 "
         id="path2" />
    </clipPath>
    <clipPath
       id="clip2">
      <path
         d="M 0 0 L 158.308594 0 L 158.308594 104 L 0 104 Z M 0 0 "
         id="path5" />
    </clipPath>
    <clipPath
       id="clip3">
      <path
         d="M 50 152 L 109 152 L 109 158.179688 L 50 158.179688 Z M 50 152 "
         id="path8" />
    </clipPath>
  </defs>
  <g
     id="surface728"
     inkscape:export-filename="/home/zen/Downloads/Logo_Guanajahills-yellow-blue2-32.png"
     inkscape:export-xdpi="14.55"
     inkscape:export-ydpi="14.55">
    <g
       clip-path="url(#clip1)"
       clip-rule="nonzero"
       id="g15">
      <path
         style=" stroke:none;fill-rule:nonzero;fill:rgb(10.868835%,55.073547%,81.069946%);fill-opacity:1;"
         d="M 108.773438 64.238281 C 104.273438 60.90625 99.039062 60.933594 94.535156 64.492188 L 69.902344 85.214844 C 67.554688 86.984375 65.089844 87.011719 62.625 85.214844 L 51.257812 75.652344 C 47.039062 72.148438 41.109375 72.085938 36.738281 75.625 L 3.988281 103.960938 C 14.5625 136.914062 45.835938 158.417969 79.308594 158.164062 C 114.171875 158.917969 144.808594 134.207031 154.636719 103.023438 L 108.773438 64.238281 "
         id="path13" />
    </g>
    <g
       clip-path="url(#clip2)"
       clip-rule="nonzero"
       id="g19">
      <path
         style=" stroke:none;fill-rule:nonzero;fill:rgb(98.001099%,71.159363%,4.80957%);fill-opacity:1;"
         d="M 109.089844 64.492188 C 104.875 60.949219 98.75 60.949219 94.535156 64.492188 L 69.902344 85.214844 C 67.792969 86.988281 64.730469 86.988281 62.625 85.214844 L 51.257812 75.652344 C 47.058594 72.121094 40.953125 72.109375 36.738281 75.625 L 3.988281 103.960938 C 1.414062 96.15625 0 87.824219 0 79.15625 C 0 35.441406 35.4375 0.00390625 79.152344 0.00390625 C 122.867188 0.00390625 158.304688 35.441406 158.304688 79.15625 C 158.304688 87.476562 157.015625 95.492188 154.636719 103.023438 L 109.089844 64.492188 "
         id="path17" />
    </g>
    <path
       style=" stroke:none;fill-rule:nonzero;fill:rgb(98.001099%,71.159363%,4.80957%);fill-opacity:1;"
       d="M 114.519531 149.976562 C 116.265625 149.097656 117.953125 148.15625 119.609375 147.140625 L 38.648438 147.140625 C 40.355469 148.148438 42.101562 149.097656 43.878906 149.976562 L 114.519531 149.976562 "
       id="path21" />
    <path
       style=" stroke:none;fill-rule:nonzero;fill:rgb(98.001099%,71.159363%,4.80957%);fill-opacity:1;"
       d="M 30.316406 141.472656 C 31.585938 142.457031 32.867188 143.398438 34.195312 144.308594 L 123.957031 144.308594 C 125.28125 143.398438 126.539062 142.457031 127.78125 141.472656 L 30.316406 141.472656 "
       id="path23" />
    <path
       style=" stroke:none;fill-rule:nonzero;fill:rgb(98.001099%,71.159363%,4.80957%);fill-opacity:1;"
       d="M 23.792969 135.804688 C 24.796875 136.777344 25.8125 137.71875 26.867188 138.636719 L 131.1875 138.636719 C 132.226562 137.722656 133.253906 136.769531 134.246094 135.804688 L 23.792969 135.804688 "
       id="path25" />
    <g
       clip-path="url(#clip3)"
       clip-rule="nonzero"
       id="g29">
      <path
         style=" stroke:none;fill-rule:nonzero;fill:rgb(98.001099%,71.159363%,4.80957%);fill-opacity:1;"
         d="M 50.308594 152.8125 C 59.4375 156.355469 69.285156 158.238281 79.300781 158.164062 C 89.445312 158.382812 99.269531 156.433594 108.289062 152.8125 L 50.308594 152.8125 "
         id="path27" />
    </g>
    <path
       style=" stroke:none;fill-rule:nonzero;fill:rgb(98.001099%,71.159363%,4.80957%);fill-opacity:1;"
       d="M 18.496094 130.136719 C 19.3125 131.101562 20.152344 132.046875 21.011719 132.96875 L 137.015625 132.96875 C 137.890625 132.046875 138.71875 131.101562 139.535156 130.136719 L 18.496094 130.136719 "
       id="path31" />
    <path
       style=" stroke:none;fill-rule:nonzero;fill:rgb(98.001099%,71.159363%,4.80957%);fill-opacity:1;"
       d="M 14.144531 124.464844 C 14.816406 125.425781 15.5 126.371094 16.210938 127.300781 L 141.835938 127.300781 C 142.558594 126.371094 143.261719 125.425781 143.933594 124.464844 L 14.144531 124.464844 "
       id="path33" />
    <path
       style=" stroke:none;fill-rule:nonzero;fill:rgb(98.001099%,71.159363%,4.80957%);fill-opacity:1;"
       d="M 12.25 121.625 L 145.851562 121.625 C 146.453125 120.695312 147.035156 119.746094 147.597656 118.792969 L 10.539062 118.792969 C 11.089844 119.75 11.660156 120.695312 12.25 121.625 "
       id="path35" />
    <path
       style=" stroke:none;fill-rule:nonzero;fill:rgb(98.001099%,71.159363%,4.80957%);fill-opacity:1;"
       d="M 18.679688 108.898438 L 13.070312 108.898438 L 13.070312 113.78125 L 18.679688 113.78125 L 18.679688 112.066406 L 15.742188 112.066406 L 15.742188 110.75 L 20.425781 110.75 L 20.425781 113.410156 C 20.425781 114.117188 20.292969 114.597656 20.03125 114.851562 C 19.765625 115.109375 19.261719 115.234375 18.511719 115.234375 L 13.1875 115.234375 C 12.4375 115.234375 11.929688 115.109375 11.667969 114.851562 C 11.40625 114.597656 11.273438 114.117188 11.273438 113.410156 L 11.273438 109.34375 C 11.273438 108.640625 11.40625 108.160156 11.667969 107.902344 C 11.929688 107.644531 12.4375 107.515625 13.1875 107.515625 L 18.511719 107.515625 C 19.25 107.515625 19.753906 107.644531 20.023438 107.898438 C 20.289062 108.148438 20.425781 108.609375 20.425781 109.269531 L 20.425781 109.445312 L 18.679688 109.757812 L 18.679688 108.898438 "
       id="path37" />
    <path
       style=" stroke:none;fill-rule:nonzero;fill:rgb(98.001099%,71.159363%,4.80957%);fill-opacity:1;"
       d="M 26.019531 107.515625 L 26.019531 113.78125 L 31.136719 113.78125 L 31.136719 107.515625 L 32.925781 107.515625 L 32.925781 113.410156 C 32.925781 114.117188 32.792969 114.597656 32.53125 114.851562 C 32.269531 115.109375 31.761719 115.234375 31.011719 115.234375 L 26.136719 115.234375 C 25.390625 115.234375 24.886719 115.109375 24.621094 114.851562 C 24.355469 114.597656 24.222656 114.117188 24.222656 113.410156 L 24.222656 107.515625 L 26.019531 107.515625 "
       id="path39" />
    <path
       style=" stroke:none;fill-rule:nonzero;fill:rgb(98.001099%,71.159363%,4.80957%);fill-opacity:1;"
       d="M 38.527344 112.152344 L 41.90625 112.152344 L 40.242188 109.015625 Z M 35.074219 115.234375 L 39.441406 107.515625 L 41.171875 107.515625 L 45.59375 115.234375 L 43.582031 115.234375 L 42.652344 113.550781 L 37.761719 113.550781 L 36.863281 115.234375 L 35.074219 115.234375 "
       id="path41" />
    <path
       style=" stroke:none;fill-rule:nonzero;fill:rgb(98.001099%,71.159363%,4.80957%);fill-opacity:1;"
       d="M 48.0625 115.234375 L 48.0625 107.515625 L 49.289062 107.515625 L 54.722656 112.066406 C 54.910156 112.21875 55.070312 112.359375 55.214844 112.492188 C 55.355469 112.628906 55.484375 112.765625 55.601562 112.90625 C 55.570312 112.472656 55.550781 112.164062 55.542969 111.984375 C 55.53125 111.804688 55.527344 111.667969 55.527344 111.570312 L 55.527344 107.515625 L 57.140625 107.515625 L 57.140625 115.234375 L 55.914062 115.234375 L 50.246094 110.46875 C 50.109375 110.347656 49.992188 110.234375 49.890625 110.140625 C 49.789062 110.039062 49.691406 109.941406 49.605469 109.839844 C 49.628906 110.078125 49.648438 110.304688 49.660156 110.515625 C 49.671875 110.726562 49.675781 110.910156 49.675781 111.066406 L 49.675781 115.234375 L 48.0625 115.234375 "
       id="path43" />
    <path
       style=" stroke:none;fill-rule:nonzero;fill:rgb(98.001099%,71.159363%,4.80957%);fill-opacity:1;"
       d="M 63.054688 112.152344 L 66.4375 112.152344 L 64.773438 109.015625 Z M 59.601562 115.234375 L 63.96875 107.515625 L 65.699219 107.515625 L 70.125 115.234375 L 68.109375 115.234375 L 67.183594 113.550781 L 62.289062 113.550781 L 61.390625 115.234375 L 59.601562 115.234375 "
       id="path45" />
    <path
       style=" stroke:none;fill-rule:nonzero;fill:rgb(98.001099%,71.159363%,4.80957%);fill-opacity:1;"
       d="M 73.730469 115.234375 C 72.980469 115.234375 72.476562 115.109375 72.214844 114.851562 C 71.949219 114.597656 71.820312 114.117188 71.820312 113.410156 L 71.820312 111.8125 L 73.628906 111.46875 L 73.628906 113.78125 L 77.15625 113.78125 L 77.15625 107.515625 L 78.953125 107.515625 L 78.953125 113.410156 C 78.953125 114.117188 78.820312 114.597656 78.554688 114.851562 C 78.289062 115.109375 77.785156 115.234375 77.039062 115.234375 L 73.730469 115.234375 "
       id="path47" />
    <path
       style=" stroke:none;fill-rule:nonzero;fill:rgb(98.001099%,71.159363%,4.80957%);fill-opacity:1;"
       d="M 84.296875 112.152344 L 87.679688 112.152344 L 86.015625 109.015625 Z M 80.84375 115.234375 L 85.210938 107.515625 L 86.941406 107.515625 L 91.367188 115.234375 L 89.351562 115.234375 L 88.425781 113.550781 L 83.53125 113.550781 L 82.632812 115.234375 L 80.84375 115.234375 "
       id="path49" />
    <path
       style=" stroke:none;fill-rule:nonzero;fill:rgb(98.001099%,71.159363%,4.80957%);fill-opacity:1;"
       d="M 99.640625 115.234375 L 99.640625 107.515625 L 101.4375 107.515625 L 101.4375 110.511719 L 107.046875 110.511719 L 107.046875 107.515625 L 108.855469 107.515625 L 108.855469 115.234375 L 107.046875 115.234375 L 107.046875 111.914062 L 101.4375 111.914062 L 101.4375 115.234375 L 99.640625 115.234375 "
       id="path51" />
    <path
       style=" stroke:none;fill-rule:nonzero;fill:rgb(98.001099%,71.159363%,4.80957%);fill-opacity:1;"
       d="M 112.800781 115.234375 L 112.800781 107.515625 L 114.597656 107.515625 L 114.597656 115.234375 L 112.800781 115.234375 "
       id="path53" />
    <path
       style=" stroke:none;fill-rule:nonzero;fill:rgb(98.001099%,71.159363%,4.80957%);fill-opacity:1;"
       d="M 118.539062 115.234375 L 118.539062 107.515625 L 120.335938 107.515625 L 120.335938 113.78125 L 126.128906 113.78125 L 126.128906 115.234375 L 118.539062 115.234375 "
       id="path55" />
    <path
       style=" stroke:none;fill-rule:nonzero;fill:rgb(98.001099%,71.159363%,4.80957%);fill-opacity:1;"
       d="M 128.757812 115.234375 L 128.757812 107.515625 L 130.550781 107.515625 L 130.550781 113.78125 L 136.34375 113.78125 L 136.34375 115.234375 L 128.757812 115.234375 "
       id="path57" />
    <path
       style=" stroke:none;fill-rule:nonzero;fill:rgb(98.001099%,71.159363%,4.80957%);fill-opacity:1;"
       d="M 145.660156 108.867188 L 140.609375 108.867188 L 140.609375 110.527344 L 145.421875 110.527344 C 146.175781 110.527344 146.683594 110.65625 146.949219 110.914062 C 147.214844 111.171875 147.347656 111.648438 147.347656 112.351562 L 147.347656 113.410156 C 147.347656 114.109375 147.214844 114.589844 146.949219 114.847656 C 146.683594 115.105469 146.175781 115.234375 145.421875 115.234375 L 140.652344 115.234375 C 139.898438 115.234375 139.386719 115.105469 139.121094 114.847656 C 138.855469 114.589844 138.722656 114.109375 138.722656 113.410156 L 138.722656 113.199219 L 140.308594 112.871094 L 140.308594 113.78125 L 145.761719 113.78125 L 145.761719 112.023438 L 140.949219 112.023438 C 140.199219 112.023438 139.695312 111.894531 139.433594 111.636719 C 139.167969 111.378906 139.039062 110.898438 139.039062 110.195312 L 139.039062 109.34375 C 139.039062 108.640625 139.167969 108.160156 139.433594 107.902344 C 139.695312 107.644531 140.199219 107.515625 140.949219 107.515625 L 145.332031 107.515625 C 146.058594 107.515625 146.558594 107.640625 146.832031 107.890625 C 147.109375 108.136719 147.246094 108.578125 147.246094 109.210938 L 147.246094 109.371094 L 145.660156 109.742188 L 145.660156 108.867188 "
       id="path59" />
  </g>
</svg>
